<mxfile host="app.diagrams.net" modified="2024-02-06T01:39:24.552Z" agent="Mozilla/5.0 (Windows NT 10.0; Win64; x64) AppleWebKit/537.36 (KHTML, like Gecko) Chrome/121.0.0.0 Safari/537.36" version="23.1.1" etag="OeAXTlxFPEasuVERG1io" type="github">
  <diagram name="페이지-1" id="3YOoqa1KV4WH05weNx4X">
    <mxGraphModel>
      <root>
        <mxCell id="0" />
        <mxCell id="1" parent="0" />
      </root>
    </mxGraphModel>
  </diagram>
</mxfile>
